<?xml version="1.0" standalone="yes"?>
<svg xmlns="http://www.w3.org/2000/svg" width="800" height="800">
<path style="fill:#ffffff; stroke:none;" d="M0 0L0 800L800 800L800 0L0 0z"/>
<path style="fill:#bdb1b1; stroke:none;" d="M295 217L296 218L295 217z"/>
<path style="fill:#717171; stroke:none;" d="M296 217L296 218L444 218C432.544 213.193 412.468 217 400 217L296 217z"/>
<path style="fill:#bdb1b1; stroke:none;" d="M444.667 217.333L445.333 217.667L444.667 217.333M293 218L291 221L293 218z"/>
<path style="fill:#3a3939; stroke:none;" d="M524 448C525.016 454.882 527.977 466.421 532.649 471.721C537.438 477.155 545.453 474.047 545.848 466.999C546.33 458.383 539.836 446.97 536.808 439C529.63 420.108 523.347 400.893 516.192 382C501.05 342.019 486.797 301.464 472.997 261C468.718 248.455 465.278 229.699 453.999 221.638C445.424 215.51 432.004 218 422 218L347 218L307 218C302.776 218 295.677 216.67 292.603 220.318C288.935 224.672 291 235.623 291 241C291 258.633 290 276.303 290 294L290 500C290 519.017 290.999 538.056 291 557C291 562.755 288.699 575.048 292.603 579.682C297.205 585.143 315.366 582 322 582L408 582L495 582C506.725 582 520.974 584.64 529.671 574.907C535.322 568.581 538.986 547.529 533.397 540.228C528.988 534.469 523.045 533.549 519.666 526C509.827 504.019 507.926 467.561 524 448z"/>
<path style="fill:#717171; stroke:none;" d="M448 218L449 219L448 218M450 219L451 220L450 219z"/>
<path style="fill:#bdb1b1; stroke:none;" d="M451 219L452 220L451 219z"/>
<path style="fill:#717171; stroke:none;" d="M452 220L453 221L452 220z"/>
<path style="fill:#bdb1b1; stroke:none;" d="M454 221L455 222L454 221M290.333 222.667L290.667 223.333L290.333 222.667z"/>
<path style="fill:#717171; stroke:none;" d="M455 222L456 223L455 222M456 223L457 224L456 223M290 224L290 254L291 254L290 224M457 224L458 225L457 224M458 225L459 226L458 225z"/>
<path style="fill:#bdb1b1; stroke:none;" d="M459 226L460 227L459 226M460 227L461 228L460 227z"/>
<path style="fill:#fe4242; stroke:none;" d="M461 228C467.732 252.662 478.17 276.981 486.947 301C500.061 336.889 512.044 373.209 525.424 409C531.019 423.965 536.458 438.993 541.947 454C543.711 458.824 547.818 466.045 544.396 470.891C534.363 485.099 525.983 455.084 524 449L522 449C508.529 472.085 508.223 511.839 524 534L525 534C599.971 459.021 602.688 334.727 521 262.845C504.446 248.278 482.824 233.172 461 228z"/>
<path style="fill:#bdb1b1; stroke:none;" d="M463 228L464 229L463 228M466 229L467 230L466 229M468 230L469 231L468 230M471 231L472 232L471 231z"/>
<path style="fill:#717171; stroke:none;" d="M381 568L381 567L306 567L306 233L381 233L363 232L324 232L306.028 233.603L305 252L305 301L305 493L305 547L306.028 566.397L325 568L381 568M428 232L428 233L442 233L428 232z"/>
<path style="fill:#bdb1b1; stroke:none;" d="M473 232L474 233L473 232z"/>
<path style="fill:#ffffff; stroke:none;" d="M306 233L306 567L381 567L381 233L306 233z"/>
<path style="fill:#bdb1b1; stroke:none;" d="M381 233L381 567L382 567L382 331L382 263L381 233z"/>
<path style="fill:#fe4242; stroke:none;" d="M417 233L417 380L428 380L428 233L417 233z"/>
<path style="fill:#ffffff; stroke:none;" d="M428 233L428 380C445.201 378.227 442 359.607 442 347C442 330.382 438.066 310.192 455 300.363C459.043 298.017 463.536 297.158 468 296L453.003 252L444.867 234.603L428 233z"/>
<path style="fill:#717171; stroke:none;" d="M444 233L445 234L444 233z"/>
<path style="fill:#bdb1b1; stroke:none;" d="M475 233L476 234L475 233M445 234L446 235L445 234M477 234L478 235L477 234M446 235L447 236L446 235M479 235L480 236L479 235M318 236L318 237L335 237L318 236M350 237L350 238L369 237L350 237z"/>
<path style="fill:#717171; stroke:none;" d="M447 236L448 237L447 236z"/>
<path style="fill:#bdb1b1; stroke:none;" d="M481 236L482 237L481 236z"/>
<path style="fill:#717171; stroke:none;" d="M318 237L318 283L319 283C319 269.996 323.01 248.939 318 237z"/>
<path style="fill:#3a3939; stroke:none;" d="M319 237L319 283L335 283L335 265C349.651 265 352 268.781 352 283L369 283C369 272.745 369.741 260.025 358 256L368 237C363.196 237 354.502 235.315 350.609 238.603C344.465 243.793 344.079 253.587 335 255L335 237L319 237z"/>
<path style="fill:#717171; stroke:none;" d="M368 237L369 238L368 237z"/>
<path style="fill:#bdb1b1; stroke:none;" d="M483 237L484 238L483 237z"/>
<path style="fill:#717171; stroke:none;" d="M448 238L449 239L448 238z"/>
<path style="fill:#bdb1b1; stroke:none;" d="M485 238L486 239L485 238M349 239L350 240L349 239M367 239L368 240L367 239M448 239L449 240L448 239M487 239L488 240L487 239M489 240L490 241L489 240z"/>
<path style="fill:#717171; stroke:none;" d="M348 241L349 242L348 241z"/>
<path style="fill:#bdb1b1; stroke:none;" d="M366 241L367 242L366 241z"/>
<path style="fill:#717171; stroke:none;" d="M449 241L450 242L449 241z"/>
<path style="fill:#bdb1b1; stroke:none;" d="M491 241L492 242L491 241M347 242L348 243L347 242M449 242L450 243L449 242M365 243L366 244L365 243M494 243L495 244L494 243z"/>
<path style="fill:#717171; stroke:none;" d="M346 244L347 245L346 244M364 244L365 245L364 244M450 244L451 245L450 244z"/>
<path style="fill:#bdb1b1; stroke:none;" d="M496 244L497 245L496 244M345 245L346 246L345 245z"/>
<path style="fill:#717171; stroke:none;" d="M363 246L364 247L363 246z"/>
<path style="fill:#bdb1b1; stroke:none;" d="M499 246L500 247L499 246M344 247L345 248L344 247z"/>
<path style="fill:#717171; stroke:none;" d="M451 247L452 248L451 247z"/>
<path style="fill:#bdb1b1; stroke:none;" d="M362 248L363 249L362 248M502 248L503 249L502 248z"/>
<path style="fill:#717171; stroke:none;" d="M343 249L344 250L343 249M452 249L453 250L452 249z"/>
<path style="fill:#bdb1b1; stroke:none;" d="M342 250L343 251L342 250M361 250L362 251L361 250M452 250L453 251L452 250M505 250L506 251L505 250z"/>
<path style="fill:#717171; stroke:none;" d="M360 251L361 252L360 251z"/>
<path style="fill:#bdb1b1; stroke:none;" d="M506 251L507 252L506 251z"/>
<path style="fill:#717171; stroke:none;" d="M341 252L342 253L341 252z"/>
<path style="fill:#bdb1b1; stroke:none;" d="M360 252L361 253L360 252z"/>
<path style="fill:#717171; stroke:none;" d="M453 252L454 253L453 252z"/>
<path style="fill:#bdb1b1; stroke:none;" d="M340 253L341 254L340 253z"/>
<path style="fill:#717171; stroke:none;" d="M359 253L360 254L359 253z"/>
<path style="fill:#bdb1b1; stroke:none;" d="M453 253L454 254L453 253M509 253L510 254L509 253M289 254L290 255L289 254z"/>
<path style="fill:#717171; stroke:none;" d="M335 254L335 255L340 255L335 254z"/>
<path style="fill:#bdb1b1; stroke:none;" d="M510 254L511 255L510 254z"/>
<path style="fill:#fe4242; stroke:none;" d="M290 545L290 255C274.409 261.601 261.442 279.785 251.63 293C209.855 349.259 208.026 424.704 238.753 486C248.977 506.396 268.248 535.79 290 545z"/>
<path style="fill:#717171; stroke:none;" d="M358 255L359 256L358 255M454 255L455 256L454 255z"/>
<path style="fill:#bdb1b1; stroke:none;" d="M286 256L287 257L286 256z"/>
<path style="fill:#717171; stroke:none;" d="M360 256L361 257L360 256z"/>
<path style="fill:#bdb1b1; stroke:none;" d="M454 256L455 257L454 256M513 256L514 257L513 256M285 257L286 258L285 257M362 257L363 258L362 257M514 257L515 258L514 257M363 258L364 259L363 258z"/>
<path style="fill:#717171; stroke:none;" d="M455 258L456 259L455 258z"/>
<path style="fill:#bdb1b1; stroke:none;" d="M364 259L365 260L364 259M280 261L281 262L280 261z"/>
<path style="fill:#717171; stroke:none;" d="M365 261L366 262L365 261M456 261L457 262L456 261z"/>
<path style="fill:#bdb1b1; stroke:none;" d="M519 261L520 262L519 261M279 262L280 263L279 262M366 262L367 263L366 262M520 262L521 263L520 262M278 263L279 264L278 263z"/>
<path style="fill:#717171; stroke:none;" d="M457 263L458 264L457 263z"/>
<path style="fill:#bdb1b1; stroke:none;" d="M521 263L522 264L521 263M277 264L278 265L277 264M367 264L368 265L367 264M457 264L458 265L457 264M522 264L523 265L522 264M335 265L335 266L348 266L335 265z"/>
<path style="fill:#717171; stroke:none;" d="M349 266L350 267L349 266M458 266L459 267L458 266z"/>
<path style="fill:#bdb1b1; stroke:none;" d="M350 267L351 268L350 267z"/>
<path style="fill:#717171; stroke:none;" d="M368.333 267.667L368.667 268.333L368.333 267.667z"/>
<path style="fill:#bdb1b1; stroke:none;" d="M458 267L459 268L458 267z"/>
<path style="fill:#717171; stroke:none;" d="M351 268L352 269L351 268M459 269L460 270L459 269z"/>
<path style="fill:#bdb1b1; stroke:none;" d="M459 270L460 271L459 270z"/>
<path style="fill:#717171; stroke:none;" d="M460 272L461 273L460 272z"/>
<path style="fill:#bdb1b1; stroke:none;" d="M369 273L369 283L370 283L369 273z"/>
<path style="fill:#717171; stroke:none;" d="M461 275L462 276L461 275z"/>
<path style="fill:#bdb1b1; stroke:none;" d="M264 277L265 278L264 277z"/>
<path style="fill:#717171; stroke:none;" d="M462 277L463 278L462 277z"/>
<path style="fill:#bdb1b1; stroke:none;" d="M535 277L536 278L535 277M263 278L264 279L263 278M462 278L463 279L462 278M536 278L537 279L536 278M262 279L263 280L262 279M537 279L538 280L537 279M261 280L262 281L261 280z"/>
<path style="fill:#717171; stroke:none;" d="M463 280L464 281L463 280z"/>
<path style="fill:#bdb1b1; stroke:none;" d="M538 280L539 281L538 280M463 281L464 282L463 281z"/>
<path style="fill:#717171; stroke:none;" d="M464 283L465 284L464 283z"/>
<path style="fill:#bdb1b1; stroke:none;" d="M464 284L465 285L464 284M257 285L258 286L257 285M542 285L543 286L542 285M256 286L257 287L256 286z"/>
<path style="fill:#717171; stroke:none;" d="M465 286L466 287L465 286z"/>
<path style="fill:#bdb1b1; stroke:none;" d="M543 286L544 287L543 286M254 289L255 290L254 289z"/>
<path style="fill:#717171; stroke:none;" d="M466 289L467 290L466 289z"/>
<path style="fill:#bdb1b1; stroke:none;" d="M545 289L546 290L545 289M253 290L254 291L253 290M546 290L547 291L546 290M321 291L321 292L365 292C353.537 287.19 333.48 291 321 291z"/>
<path style="fill:#717171; stroke:none;" d="M467 291L468 292L467 291z"/>
<path style="fill:#bdb1b1; stroke:none;" d="M319 292L318 294L319 292z"/>
<path style="fill:#3a3939; stroke:none;" d="M367 321L351 321C350.055 326.927 339.852 330.413 336.028 324.682C332.837 319.9 335 308.611 335 303C341.298 303 349.735 301.066 351 309L367 309C367 305.169 368.725 295.664 365.397 293.028C362.779 290.954 357.121 292 354 292C346.105 292 319.475 287.68 319.019 298.005C318.595 307.63 318.999 317.364 319 327C319 329.793 318.092 334.832 320.603 336.821C323.134 338.826 327.999 338 331 338L356 338C358.873 337.999 363.905 338.813 365.972 336.258C368.553 333.068 367 324.912 367 321z"/>
<path style="fill:#bdb1b1; stroke:none;" d="M366 292L367 293L366 292M467 292L468 293L467 292M251 293L252 294L251 293M548 293L549 294L548 293M250 294L251 295L250 294z"/>
<path style="fill:#717171; stroke:none;" d="M318 294L318 336L319 336C319 324.043 322.611 304.988 318 294M367 294L367 309L368 309L367 294M468 294L469 295L468 294z"/>
<path style="fill:#bdb1b1; stroke:none;" d="M549 294L550 295L549 294M468 295L466 296L466 297L468 295M248 297L249 298L248 297M461 297L462 298L461 297z"/>
<path style="fill:#717171; stroke:none;" d="M462 297L463 298L462 297z"/>
<path style="fill:#bdb1b1; stroke:none;" d="M551 297L552 298L551 297z"/>
<path style="fill:#717171; stroke:none;" d="M458 298L459 299L458 298M456 299L457 300L456 299z"/>
<path style="fill:#bdb1b1; stroke:none;" d="M246 300L247 301L246 300z"/>
<path style="fill:#717171; stroke:none;" d="M454 300L455 301L454 300z"/>
<path style="fill:#bdb1b1; stroke:none;" d="M553 300L554 301L553 300M452 301L453 302L452 301z"/>
<path style="fill:#717171; stroke:none;" d="M451 302L452 303L451 302z"/>
<path style="fill:#bdb1b1; stroke:none;" d="M244 303L245 304L244 303z"/>
<path style="fill:#717171; stroke:none;" d="M335 303L336 304L335 303z"/>
<path style="fill:#bdb1b1; stroke:none;" d="M336 303L336 304L350 304L336 303z"/>
<path style="fill:#717171; stroke:none;" d="M450 303L451 304L450 303z"/>
<path style="fill:#bdb1b1; stroke:none;" d="M555 303L556 304L555 303M350 304L350 309L351 309L350 304z"/>
<path style="fill:#717171; stroke:none;" d="M449 304L450 305L449 304z"/>
<path style="fill:#bdb1b1; stroke:none;" d="M243 305L244 306L243 305z"/>
<path style="fill:#717171; stroke:none;" d="M448 305L449 306L448 305z"/>
<path style="fill:#bdb1b1; stroke:none;" d="M556 305L557 306L556 305z"/>
<path style="fill:#717171; stroke:none;" d="M447 306L448 307L447 306M446 307L447 308L446 307z"/>
<path style="fill:#bdb1b1; stroke:none;" d="M241 308L242 309L241 308M445 308L446 309L445 308M558 308L559 309L558 308M351 309L351 310L368 310L351 309z"/>
<path style="fill:#717171; stroke:none;" d="M445 309L446 310L445 309z"/>
<path style="fill:#bdb1b1; stroke:none;" d="M240 310L241 311L240 310M444 310L445 311L444 310M559 310L560 311L559 310M239 312L240 313L239 312M443 312L444 313L443 312z"/>
<path style="fill:#717171; stroke:none;" d="M464 312L465 313L464 312z"/>
<path style="fill:#bdb1b1; stroke:none;" d="M465 312L465 313L475 313L465 312M560 312L561 313L560 312z"/>
<path style="fill:#717171; stroke:none;" d="M443 313L444 314L443 313M462 313L463 314L462 313z"/>
<path style="fill:#bdb1b1; stroke:none;" d="M463 313L464 314L463 313z"/>
<path style="fill:#ffffff; stroke:none;" d="M428 396L428 507C458.055 509.392 481.918 537.413 482 567C490.218 567 514.217 571.069 518.821 562.891C525.379 551.24 508.206 540.07 504.204 530C495.335 507.686 494.719 482.087 500.885 459C504.812 444.299 519.989 435.944 513 421C509.683 423.336 507.012 426.189 504 428.895C499.231 433.181 486.802 435.741 488.542 425C490.007 415.964 502.697 412.231 505.787 404C507.398 399.711 503.34 393.112 502 389C498.287 391.616 495.24 394.818 492 397.995C487.655 402.257 472.994 407.037 475.931 395C478.258 385.463 493.38 381.639 495.018 372C495.594 368.608 493.039 364.187 492 361C487.181 364.395 482.785 371.585 477 373.149C471.438 374.653 466.677 367.893 469.032 363C472.382 356.039 483.694 351.789 485.018 344C485.63 340.4 482.822 335.358 481.656 332C478.544 323.038 475.401 306.789 462.189 314.457C455.259 318.478 458 332.24 458 339C458 362.207 459.945 394.607 428 396z"/>
<path style="fill:#bdb1b1; stroke:none;" d="M238 314L239 315L238 314M461 314L462 315L461 314z"/>
<path style="fill:#717171; stroke:none;" d="M475 314L476 315L475 314z"/>
<path style="fill:#bdb1b1; stroke:none;" d="M561 314L562 315L561 314M237 316L238 317L237 316M442 316L442 366L443 366C443 351.951 447.409 328.89 442 316M459 316L460 317L459 316M562 316L563 317L562 316z"/>
<path style="fill:#717171; stroke:none;" d="M458 317L459 318L458 317M476 317L477 318L476 317z"/>
<path style="fill:#bdb1b1; stroke:none;" d="M236 318L237 319L236 318M563 318L564 319L563 318z"/>
<path style="fill:#717171; stroke:none;" d="M477 319L478 320L477 319z"/>
<path style="fill:#bdb1b1; stroke:none;" d="M235 320L236 321L235 320z"/>
<path style="fill:#717171; stroke:none;" d="M351 320L351 321L367 321L367 336L368 336L368 320L351 320z"/>
<path style="fill:#bdb1b1; stroke:none;" d="M477 320L478 321L477 320M564 320L565 321L564 320M350 321L350 326L351 326L350 321M234 322L235 323L234 322z"/>
<path style="fill:#717171; stroke:none;" d="M478 322L479 323L478 322z"/>
<path style="fill:#bdb1b1; stroke:none;" d="M565 322L566 323L565 322M478 323L479 324L478 323M233 324L234 325L233 324M566 324L567 325L566 324M335 325L336 326L335 325z"/>
<path style="fill:#717171; stroke:none;" d="M479 325L480 326L479 325z"/>
<path style="fill:#bdb1b1; stroke:none;" d="M232 326L233 327L232 326z"/>
<path style="fill:#717171; stroke:none;" d="M336 326L336 327L350 327L336 326z"/>
<path style="fill:#bdb1b1; stroke:none;" d="M479 326L480 327L479 326M567 326L568 327L567 326M231 328L232 329L231 328z"/>
<path style="fill:#717171; stroke:none;" d="M480 328L481 329L480 328z"/>
<path style="fill:#bdb1b1; stroke:none;" d="M568 328L569 329L568 328M230 331L231 332L230 331z"/>
<path style="fill:#717171; stroke:none;" d="M481 331L482 332L481 331z"/>
<path style="fill:#bdb1b1; stroke:none;" d="M569 331L570 332L569 331M229 333L230 334L229 333z"/>
<path style="fill:#717171; stroke:none;" d="M482 333L483 334L482 333z"/>
<path style="fill:#bdb1b1; stroke:none;" d="M570 333L571 334L570 333M482 334L483 335L482 334M228 336L229 337L228 336z"/>
<path style="fill:#717171; stroke:none;" d="M483 336L484 337L483 336z"/>
<path style="fill:#bdb1b1; stroke:none;" d="M571 336L572 337L571 336z"/>
<path style="fill:#717171; stroke:none;" d="M320 337L321 338L320 337M365 337L366 338L365 337z"/>
<path style="fill:#bdb1b1; stroke:none;" d="M483 337L484 338L483 337M321 338L321 339L365 339C353.537 334.19 333.48 338 321 338M227 339L228 340L227 339z"/>
<path style="fill:#717171; stroke:none;" d="M484 339L485 340L484 339z"/>
<path style="fill:#bdb1b1; stroke:none;" d="M572 339L573 340L572 339M484 340L485 341L484 340M226 342L227 343L226 342z"/>
<path style="fill:#717171; stroke:none;" d="M485 342L486 343L485 342z"/>
<path style="fill:#bdb1b1; stroke:none;" d="M573 342L574 343L573 342M225 345L226 346L225 345z"/>
<path style="fill:#717171; stroke:none;" d="M485 345L486 346L485 345z"/>
<path style="fill:#bdb1b1; stroke:none;" d="M574 345L575 346L574 345z"/>
<path style="fill:#717171; stroke:none;" d="M318 346L318 393L335 393L335 392L319 392L319 347L335 347L318 346M351 346L351 347L369 347L351 346z"/>
<path style="fill:#3a3939; stroke:none;" d="M319 347L319 392L335 392L335 375C349.016 375 352 377.984 352 392L369 392C369 382.282 369.537 369.248 358 366L368 347C363.118 347 354.532 345.338 350.529 348.603C344.41 353.593 344.169 363.294 335 364L335 347L319 347z"/>
<path style="fill:#bdb1b1; stroke:none;" d="M350 347L351 348L350 347M368 347L369 348L368 347M224 348L225 349L224 348M575 348L576 349L575 348z"/>
<path style="fill:#717171; stroke:none;" d="M349 349L350 350L349 349z"/>
<path style="fill:#bdb1b1; stroke:none;" d="M367 349L368 350L367 349M348 350L349 351L348 350z"/>
<path style="fill:#717171; stroke:none;" d="M366 350L367 351L366 350z"/>
<path style="fill:#bdb1b1; stroke:none;" d="M223.333 351.667L223.667 352.333L223.333 351.667M366 351L367 352L366 351M576.333 351.667L576.667 352.333L576.333 351.667z"/>
<path style="fill:#717171; stroke:none;" d="M347 352L348 353L347 352M365 352L366 353L365 352M346 354L347 355L346 354M364 354L365 355L364 354z"/>
<path style="fill:#bdb1b1; stroke:none;" d="M222.333 355.667L222.667 356.333L222.333 355.667M345 355L346 356L345 355M577.333 355.667L577.667 356.333L577.333 355.667M363 356L364 357L363 356z"/>
<path style="fill:#717171; stroke:none;" d="M344 357L345 358L344 357z"/>
<path style="fill:#bdb1b1; stroke:none;" d="M343 358L344 359L343 358M362 358L363 359L362 358M221.333 359.667L221.667 360.333L221.333 359.667z"/>
<path style="fill:#717171; stroke:none;" d="M361 359L362 360L361 359z"/>
<path style="fill:#bdb1b1; stroke:none;" d="M578.333 359.667L578.667 360.333L578.333 359.667z"/>
<path style="fill:#717171; stroke:none;" d="M342 360L343 361L342 360z"/>
<path style="fill:#bdb1b1; stroke:none;" d="M361 360L362 361L361 360z"/>
<path style="fill:#717171; stroke:none;" d="M491 360L492 361L491 360z"/>
<path style="fill:#bdb1b1; stroke:none;" d="M341 361L342 362L341 361z"/>
<path style="fill:#717171; stroke:none;" d="M360 361L361 362L360 361M469 361L470 362L469 361M490 361L491 362L490 361M492 361L493 362L492 361z"/>
<path style="fill:#bdb1b1; stroke:none;" d="M468 362L469 363L468 362z"/>
<path style="fill:#717171; stroke:none;" d="M489 362L490 363L489 362z"/>
<path style="fill:#bdb1b1; stroke:none;" d="M492 362L493 363L492 362M335 363L335 364L340 364L335 363z"/>
<path style="fill:#717171; stroke:none;" d="M340 363L341 364L340 363z"/>
<path style="fill:#bdb1b1; stroke:none;" d="M359 363L360 364L359 363z"/>
<path style="fill:#717171; stroke:none;" d="M468 363L469 364L468 363M488 363L489 364L488 363z"/>
<path style="fill:#bdb1b1; stroke:none;" d="M220.333 364.667L220.667 365.333L220.333 364.667z"/>
<path style="fill:#717171; stroke:none;" d="M487 364L488 365L487 364M493 364L494 365L493 364z"/>
<path style="fill:#bdb1b1; stroke:none;" d="M579.333 364.667L579.667 365.333L579.333 364.667z"/>
<path style="fill:#717171; stroke:none;" d="M358 365L359 366L358 365z"/>
<path style="fill:#bdb1b1; stroke:none;" d="M359 365L360 366L359 365z"/>
<path style="fill:#717171; stroke:none;" d="M486 365L487 366L486 365z"/>
<path style="fill:#bdb1b1; stroke:none;" d="M493 365L494 366L493 365M361 366L362 367L361 366z"/>
<path style="fill:#717171; stroke:none;" d="M442.333 366.667L442.667 367.333L442.333 366.667M485 366L486 367L485 366M362 367L363 368L362 367M457 367L457 370L458 370L457 367M484 367L485 368L484 367M494 367L495 368L494 367M363 368L364 369L363 368M468 368L469 369L468 368M483 368L484 369L483 368z"/>
<path style="fill:#bdb1b1; stroke:none;" d="M494 368L495 369L494 368z"/>
<path style="fill:#717171; stroke:none;" d="M364 369L365 370L364 369z"/>
<path style="fill:#bdb1b1; stroke:none;" d="M468 369L469 370L468 369z"/>
<path style="fill:#717171; stroke:none;" d="M482 369L483 370L482 369z"/>
<path style="fill:#bdb1b1; stroke:none;" d="M219.333 370.667L219.667 371.333L219.333 370.667M365 370L366 371L365 370M441 370L442 371L441 370M457.333 370.667L457.667 371.333L457.333 370.667z"/>
<path style="fill:#717171; stroke:none;" d="M469 370L470 371L469 370M481 370L482 371L481 370M495 370L496 371L495 370z"/>
<path style="fill:#bdb1b1; stroke:none;" d="M580.333 370.667L580.667 371.333L580.333 370.667z"/>
<path style="fill:#717171; stroke:none;" d="M470 371L471 372L470 371M480 371L481 372L480 371M366 372L367 373L366 372z"/>
<path style="fill:#bdb1b1; stroke:none;" d="M440 372L441 373L440 372M471 372L472 373L471 372M479 372L480 373L479 372M473 373L473 374L478 374L473 373z"/>
<path style="fill:#717171; stroke:none;" d="M495 373L496 374L495 373M367 374L368 375L367 374M439 374L440 375L439 374M456 374L457 375L456 374M494 374L495 375L494 374z"/>
<path style="fill:#bdb1b1; stroke:none;" d="M335 375L335 376L349 376L335 375z"/>
<path style="fill:#717171; stroke:none;" d="M438 375L439 376L438 375M493 375L494 376L493 375z"/>
<path style="fill:#bdb1b1; stroke:none;" d="M349 376L350 377L349 376M368 376L369 377L368 376z"/>
<path style="fill:#717171; stroke:none;" d="M437 376L438 377L437 376M492 376L493 377L492 376z"/>
<path style="fill:#bdb1b1; stroke:none;" d="M218.333 377.667L218.667 378.333L218.333 377.667z"/>
<path style="fill:#717171; stroke:none;" d="M368.333 377.667L368.667 378.333L368.333 377.667M436 377L437 378L436 377z"/>
<path style="fill:#bdb1b1; stroke:none;" d="M455 377L456 378L455 377z"/>
<path style="fill:#717171; stroke:none;" d="M491 377L492 378L491 377z"/>
<path style="fill:#bdb1b1; stroke:none;" d="M581.333 377.667L581.667 378.333L581.333 377.667M351 378L352 379L351 378M434 378L435 379L434 378M432 379L433 380L432 379M454 379L455 380L454 379z"/>
<path style="fill:#717171; stroke:none;" d="M418 380L418 381L428 381L418 380z"/>
<path style="fill:#bdb1b1; stroke:none;" d="M428 380L429 381L428 380z"/>
<path style="fill:#717171; stroke:none;" d="M429 380L430 381L429 380z"/>
<path style="fill:#bdb1b1; stroke:none;" d="M453 381L454 382L453 381M369 382L369 392L370 392L369 382z"/>
<path style="fill:#717171; stroke:none;" d="M452 382L453 383L452 382z"/>
<path style="fill:#bdb1b1; stroke:none;" d="M451 384L452 385L451 384M450 385L451 386L450 385z"/>
<path style="fill:#717171; stroke:none;" d="M449 386L450 387L449 386z"/>
<path style="fill:#bdb1b1; stroke:none;" d="M217 387L217 393L218 393L217 387z"/>
<path style="fill:#717171; stroke:none;" d="M448 387L449 388L448 387z"/>
<path style="fill:#bdb1b1; stroke:none;" d="M582 387L582 393L583 393L582 387M447 388L448 389L447 388M446 389L447 390L446 389z"/>
<path style="fill:#717171; stroke:none;" d="M502 389L503 390L502 389M444 390L445 391L444 390z"/>
<path style="fill:#bdb1b1; stroke:none;" d="M502 390L503 391L502 390M443 391L444 392L443 391z"/>
<path style="fill:#717171; stroke:none;" d="M352 392L352 393L369 393L352 392z"/>
<path style="fill:#bdb1b1; stroke:none;" d="M441 392L442 393L441 392z"/>
<path style="fill:#717171; stroke:none;" d="M476 392L477 393L476 392M503 392L504 393L503 392z"/>
<path style="fill:#bdb1b1; stroke:none;" d="M439 393L440 394L439 393M503 393L504 394L503 393z"/>
<path style="fill:#717171; stroke:none;" d="M436 394L437 395L436 394z"/>
<path style="fill:#bdb1b1; stroke:none;" d="M437 394L438 395L437 394M475 394L475 398L476 398L475 394z"/>
<path style="fill:#717171; stroke:none;" d="M430.667 395.333L431.333 395.667L430.667 395.333z"/>
<path style="fill:#bdb1b1; stroke:none;" d="M432.667 395.333L433.333 395.667L432.667 395.333z"/>
<path style="fill:#717171; stroke:none;" d="M504 395L505 396L504 395z"/>
<path style="fill:#fe4242; stroke:none;" d="M417 396L417 514C446.903 514.02 468.715 538.088 471 567L482 567C481.744 536.033 458.447 510.932 428 507L428 396L417 396z"/>
<path style="fill:#bdb1b1; stroke:none;" d="M504 396L505 397L504 396z"/>
<path style="fill:#717171; stroke:none;" d="M492 397L493 398L492 397M491 398L492 399L491 398M505 398L506 399L505 398M490 399L491 400L490 399z"/>
<path style="fill:#bdb1b1; stroke:none;" d="M476 400L477 401L476 400z"/>
<path style="fill:#717171; stroke:none;" d="M489 400L490 401L489 400z"/>
<path style="fill:#bdb1b1; stroke:none;" d="M318 401L318 402L366 402C353.586 396.791 331.526 401 318 401z"/>
<path style="fill:#717171; stroke:none;" d="M477 401L478 402L477 401M488 401L489 402L488 401M506 401L507 402L506 401M318 402L318 448L319 448C319 434.996 323.01 413.939 318 402z"/>
<path style="fill:#3a3939; stroke:none;" d="M319 402L319 448L335 448L335 413L351 413C348.64 417.966 342.858 422.706 341.722 428C341.02 431.273 343.591 434.392 345.193 437C352.077 448.205 356.468 448 369 448C367.289 442.071 360.414 435.195 360.904 429C361.507 421.366 372.863 413.146 366.972 404.318C364.569 400.716 357.69 402 354 402L319 402z"/>
<path style="fill:#717171; stroke:none;" d="M366 402L367 403L366 402z"/>
<path style="fill:#bdb1b1; stroke:none;" d="M478 402L479 403L478 402z"/>
<path style="fill:#717171; stroke:none;" d="M487 402L488 403L487 402M367 403L368 404L367 403M480.667 403.333L481.333 403.667L480.667 403.333M485 403L486 404L485 403z"/>
<path style="fill:#bdb1b1; stroke:none;" d="M486 403L487 404L486 403z"/>
<path style="fill:#717171; stroke:none;" d="M506 404L507 405L506 404M505 405L506 406L505 405M504 406L505 407L504 406z"/>
<path style="fill:#bdb1b1; stroke:none;" d="M217 407L217 413L218 413L217 407z"/>
<path style="fill:#717171; stroke:none;" d="M503 407L504 408L503 407z"/>
<path style="fill:#bdb1b1; stroke:none;" d="M582 407L582 413L583 413L582 407z"/>
<path style="fill:#717171; stroke:none;" d="M502 408L503 409L502 408M501 409L502 410L501 409M500 410L501 411L500 410M499 411L500 412L499 411M498 412L499 413L498 412z"/>
<path style="fill:#bdb1b1; stroke:none;" d="M335 413L335 414L351 415L335 413z"/>
<path style="fill:#717171; stroke:none;" d="M350 413L351 414L350 413M497 413L498 414L497 413M367 414L367 417L368 417L367 414M496 414L497 415L496 414M495 415L496 416L495 415M349 416L350 417L349 416M494 416L495 417L494 416z"/>
<path style="fill:#bdb1b1; stroke:none;" d="M348 417L349 418L348 417M367 417L368 418L367 417z"/>
<path style="fill:#717171; stroke:none;" d="M493 417L494 418L493 417M492 418L493 419L492 418M347 419L348 420L347 419z"/>
<path style="fill:#bdb1b1; stroke:none;" d="M366 419L367 420L366 419z"/>
<path style="fill:#717171; stroke:none;" d="M491 419L492 420L491 419M346 420L347 421L346 420M365 420L366 421L365 420M490 420L491 421L490 420z"/>
<path style="fill:#bdb1b1; stroke:none;" d="M512 420L514 422L512 420z"/>
<path style="fill:#717171; stroke:none;" d="M513 420L514 421L513 420z"/>
<path style="fill:#bdb1b1; stroke:none;" d="M218.333 421.667L218.667 422.333L218.333 421.667M345 421L346 422L345 421M454 421L455 422L454 421z"/>
<path style="fill:#fe4242; stroke:none;" d="M455.004 421.657C441.145 425.89 448.177 446.376 461.996 442.566C475.741 438.777 468.249 417.611 455.004 421.657z"/>
<path style="fill:#bdb1b1; stroke:none;" d="M461.667 421.333L462.333 421.667L461.667 421.333z"/>
<path style="fill:#717171; stroke:none;" d="M489 421L490 422L489 421z"/>
<path style="fill:#bdb1b1; stroke:none;" d="M511 421L512 422L511 421M581.333 421.667L581.667 422.333L581.333 421.667M452 422L453 423L452 422M464 422L465 423L464 422M510 422L511 423L510 422z"/>
<path style="fill:#717171; stroke:none;" d="M344 423L345 424L344 423z"/>
<path style="fill:#bdb1b1; stroke:none;" d="M363 423L364 424L363 423M465 423L466 424L465 423z"/>
<path style="fill:#717171; stroke:none;" d="M488.333 423.667L488.667 424.333L488.333 423.667z"/>
<path style="fill:#bdb1b1; stroke:none;" d="M509 423L510 424L509 423z"/>
<path style="fill:#717171; stroke:none;" d="M514 423L515 424L514 423M343 424L344 425L343 424M362 424L363 425L362 424z"/>
<path style="fill:#bdb1b1; stroke:none;" d="M466 424L467 425L466 424M508 424L509 425L508 424M514 424L515 425L514 424z"/>
<path style="fill:#717171; stroke:none;" d="M342 425L343 426L342 425z"/>
<path style="fill:#bdb1b1; stroke:none;" d="M467 425L468 426L467 425M507 425L508 426L507 425z"/>
<path style="fill:#717171; stroke:none;" d="M341 426L342 427L341 426z"/>
<path style="fill:#bdb1b1; stroke:none;" d="M361 426L362 427L361 426M448 426L449 427L448 426M506 426L507 427L506 426z"/>
<path style="fill:#717171; stroke:none;" d="M515 426L516 427L515 426z"/>
<path style="fill:#bdb1b1; stroke:none;" d="M340 427L340 430L341 430L340 427z"/>
<path style="fill:#717171; stroke:none;" d="M360 427L361 428L360 427M488.333 427.667L488.667 428.333L488.333 427.667z"/>
<path style="fill:#bdb1b1; stroke:none;" d="M505 427L506 428L505 427M219.333 428.667L219.667 429.333L219.333 428.667M447.333 428.667L447.667 429.333L447.333 428.667M504 428L505 429L504 428M580.333 428.667L580.667 429.333L580.333 428.667M469.333 429.667L469.667 430.333L469.333 429.667M503 429L504 430L503 429z"/>
<path style="fill:#717171; stroke:none;" d="M516 429L517 430L516 429z"/>
<path style="fill:#bdb1b1; stroke:none;" d="M360 430L361 431L360 430z"/>
<path style="fill:#717171; stroke:none;" d="M489 430L490 431L489 430z"/>
<path style="fill:#bdb1b1; stroke:none;" d="M502 430L503 431L502 430z"/>
<path style="fill:#717171; stroke:none;" d="M533 430L534 431L533 430z"/>
<path style="fill:#bdb1b1; stroke:none;" d="M341 431L342 432L341 431z"/>
<path style="fill:#717171; stroke:none;" d="M490 431L491 432L490 431z"/>
<path style="fill:#bdb1b1; stroke:none;" d="M501 431L502 432L501 431z"/>
<path style="fill:#717171; stroke:none;" d="M517 431L518 432L517 431M342 432L343 433L342 432z"/>
<path style="fill:#bdb1b1; stroke:none;" d="M361 432L362 433L361 432M491 432L492 433L491 432z"/>
<path style="fill:#717171; stroke:none;" d="M499 432L500 433L499 432z"/>
<path style="fill:#bdb1b1; stroke:none;" d="M517 432L518 433L517 432M493 433L494 434L493 433z"/>
<path style="fill:#717171; stroke:none;" d="M494 433L494 434L497 434L494 433z"/>
<path style="fill:#bdb1b1; stroke:none;" d="M497 433L498 434L497 433M516 433L517 434L516 433M220.333 434.667L220.667 435.333L220.333 434.667M343 434L344 435L343 434z"/>
<path style="fill:#717171; stroke:none;" d="M362 434L363 435L362 434z"/>
<path style="fill:#bdb1b1; stroke:none;" d="M469.333 434.667L469.667 435.333L469.333 434.667z"/>
<path style="fill:#717171; stroke:none;" d="M515 434L516 435L515 434z"/>
<path style="fill:#bdb1b1; stroke:none;" d="M579.333 434.667L579.667 435.333L579.333 434.667z"/>
<path style="fill:#717171; stroke:none;" d="M344 435L345 436L344 435z"/>
<path style="fill:#bdb1b1; stroke:none;" d="M447 435L448 436L447 435z"/>
<path style="fill:#717171; stroke:none;" d="M514 435L515 436L514 435M363 436L364 437L363 436z"/>
<path style="fill:#bdb1b1; stroke:none;" d="M345 437L346 438L345 437M364 437L365 438L364 437M448 437L449 438L448 437M468 437L469 438L468 437z"/>
<path style="fill:#717171; stroke:none;" d="M364 438L365 439L364 438z"/>
<path style="fill:#bdb1b1; stroke:none;" d="M221.333 439.667L221.667 440.333L221.333 439.667M346 439L347 440L346 439M365 439L366 440L365 439M449 439L450 440L449 439z"/>
<path style="fill:#717171; stroke:none;" d="M510 439L511 440L510 439z"/>
<path style="fill:#bdb1b1; stroke:none;" d="M578 439L579 440L578 439z"/>
<path style="fill:#717171; stroke:none;" d="M347 440L348 441L347 440z"/>
<path style="fill:#bdb1b1; stroke:none;" d="M450 440L451 441L450 440z"/>
<path style="fill:#717171; stroke:none;" d="M509 440L510 441L509 440z"/>
<path style="fill:#bdb1b1; stroke:none;" d="M366 441L367 442L366 441M451 441L452 442L451 441M508 441L509 442L508 441M348 442L349 443L348 442M453 442L454 443L453 442M463 442L464 443L463 442M222.333 443.667L222.667 444.333L222.333 443.667z"/>
<path style="fill:#717171; stroke:none;" d="M349 443L350 444L349 443z"/>
<path style="fill:#bdb1b1; stroke:none;" d="M367 443L368 444L367 443M456 443L456 444L461 444L456 443z"/>
<path style="fill:#717171; stroke:none;" d="M507 443L508 444L507 443z"/>
<path style="fill:#bdb1b1; stroke:none;" d="M577.333 443.667L577.667 444.333L577.333 443.667M506 444L507 445L506 444z"/>
<path style="fill:#717171; stroke:none;" d="M350 445L351 446L350 445z"/>
<path style="fill:#bdb1b1; stroke:none;" d="M368 445L369 446L368 445z"/>
<path style="fill:#717171; stroke:none;" d="M506 445L507 446L506 445z"/>
<path style="fill:#bdb1b1; stroke:none;" d="M505 446L506 447L505 446M223.333 447.667L223.667 448.333L223.333 447.667M351 447L352 448L351 447z"/>
<path style="fill:#717171; stroke:none;" d="M369 447L370 448L369 447M505 447L506 448L505 447z"/>
<path style="fill:#bdb1b1; stroke:none;" d="M576.333 447.667L576.667 448.333L576.333 447.667M504 448L505 449L504 448z"/>
<path style="fill:#717171; stroke:none;" d="M523 448L524 449L523 448M504 449L505 450L504 449z"/>
<path style="fill:#bdb1b1; stroke:none;" d="M224 451L225 452L224 451z"/>
<path style="fill:#717171; stroke:none;" d="M503 451L504 452L503 451z"/>
<path style="fill:#bdb1b1; stroke:none;" d="M575 451L576 452L575 451M502 453L503 454L502 453M225 454L226 455L225 454z"/>
<path style="fill:#717171; stroke:none;" d="M502 454L503 455L502 454z"/>
<path style="fill:#bdb1b1; stroke:none;" d="M574 454L575 455L574 454M456 456L456 457L461 457L456 456M501 456L502 457L501 456M226 457L227 458L226 457M453 457L454 458L453 457z"/>
<path style="fill:#fe4242; stroke:none;" d="M454.015 457.742C441.143 462.805 449.134 483.138 461.999 478.257C475.913 472.978 467.839 452.305 454.015 457.742z"/>
<path style="fill:#bdb1b1; stroke:none;" d="M463 457L464 458L463 457z"/>
<path style="fill:#717171; stroke:none;" d="M501 457L502 458L501 457z"/>
<path style="fill:#bdb1b1; stroke:none;" d="M573 457L574 458L573 457z"/>
<path style="fill:#717171; stroke:none;" d="M318 458L318 504L319 504C319 490.996 323.01 469.939 318 458z"/>
<path style="fill:#3a3939; stroke:none;" d="M319 458L319 504L335 504L335 473L336 473C337.133 479.581 342.818 500.555 349.225 503.397C355.828 506.325 367.808 504 375 504L375 458L358 458L358 488C354.162 480.717 352.872 463.506 345.722 459.028C339.813 455.326 325.869 458 319 458z"/>
<path style="fill:#bdb1b1; stroke:none;" d="M450 459L451 460L450 459M227 460L228 461L227 460M449 460L450 461L449 460M500 460L501 461L500 460M572 460L573 461L572 460M348 461L349 462L348 461z"/>
<path style="fill:#717171; stroke:none;" d="M500 461L501 462L500 461M348 462L349 463L348 462z"/>
<path style="fill:#bdb1b1; stroke:none;" d="M448 462L449 463L448 462M468 462L469 463L468 462M228 463L229 464L228 463M571 463L572 464L571 463M349 464L350 465L349 464M447 464L448 465L447 464M499.333 464.667L499.667 465.333L499.333 464.667z"/>
<path style="fill:#717171; stroke:none;" d="M349 465L350 466L349 465z"/>
<path style="fill:#bdb1b1; stroke:none;" d="M469 465L470 466L469 465M229 466L230 467L229 466z"/>
<path style="fill:#717171; stroke:none;" d="M499 466L500 467L499 466z"/>
<path style="fill:#bdb1b1; stroke:none;" d="M570 466L571 467L570 466M350 467L351 468L350 467M230 468L231 469L230 468M569 468L570 469L569 468M469.333 469.667L469.667 470.333L469.333 469.667M498 469L498 472L499 472L498 469z"/>
<path style="fill:#717171; stroke:none;" d="M514 469L515 470L514 469M351 470L352 471L351 470z"/>
<path style="fill:#bdb1b1; stroke:none;" d="M447.333 470.667L447.667 471.333L447.333 470.667z"/>
<path style="fill:#717171; stroke:none;" d="M545 470L546 471L545 470z"/>
<path style="fill:#bdb1b1; stroke:none;" d="M231 471L232 472L231 471M568 471L569 472L568 471M352 472L353 473L352 472z"/>
<path style="fill:#717171; stroke:none;" d="M498.333 472.667L498.667 473.333L498.333 472.667z"/>
<path style="fill:#bdb1b1; stroke:none;" d="M232 473L233 474L232 473z"/>
<path style="fill:#717171; stroke:none;" d="M335 473L336 474L335 473M352 473L353 474L352 473z"/>
<path style="fill:#bdb1b1; stroke:none;" d="M448 473L449 474L448 473M567 473L568 474L567 473M335 474L336 475L335 474M467 474L468 475L467 474z"/>
<path style="fill:#717171; stroke:none;" d="M536 474L537 475L536 474z"/>
<path style="fill:#bdb1b1; stroke:none;" d="M233 475L234 476L233 475M353 475L354 476L353 475M466 475L467 476L466 475M566 475L567 476L566 475z"/>
<path style="fill:#717171; stroke:none;" d="M336 476L337 477L336 476M353 476L354 477L353 476z"/>
<path style="fill:#bdb1b1; stroke:none;" d="M465 476L466 477L465 476z"/>
<path style="fill:#717171; stroke:none;" d="M513 476L514 477L513 476z"/>
<path style="fill:#bdb1b1; stroke:none;" d="M234 477L235 478L234 477M452 477L453 478L452 477M464 477L465 478L464 477M497 477L497 484L498 484L497 477M565 477L566 478L565 477z"/>
<path style="fill:#717171; stroke:none;" d="M337 478L338 479L337 478z"/>
<path style="fill:#bdb1b1; stroke:none;" d="M354 478L355 479L354 478M454 478L455 479L454 478M462 478L463 479L462 478M235 479L236 480L235 479M337 479L338 480L337 479z"/>
<path style="fill:#717171; stroke:none;" d="M354 479L355 480L354 479z"/>
<path style="fill:#bdb1b1; stroke:none;" d="M564 479L565 480L564 479M236 481L237 482L236 481z"/>
<path style="fill:#717171; stroke:none;" d="M338 481L339 482L338 481z"/>
<path style="fill:#bdb1b1; stroke:none;" d="M355 481L356 482L355 481M563 481L564 482L563 481z"/>
<path style="fill:#717171; stroke:none;" d="M355 482L356 483L355 482z"/>
<path style="fill:#bdb1b1; stroke:none;" d="M237 483L238 484L237 483z"/>
<path style="fill:#717171; stroke:none;" d="M339 483L340 484L339 483z"/>
<path style="fill:#bdb1b1; stroke:none;" d="M562 483L563 484L562 483M339 484L340 485L339 484M356 484L357 485L356 484z"/>
<path style="fill:#717171; stroke:none;" d="M497 484L497 498L498 498L497 484z"/>
<path style="fill:#bdb1b1; stroke:none;" d="M238 485L239 486L238 485z"/>
<path style="fill:#717171; stroke:none;" d="M356 485L357 486L356 485z"/>
<path style="fill:#bdb1b1; stroke:none;" d="M561 485L562 486L561 485z"/>
<path style="fill:#717171; stroke:none;" d="M340 486L341 487L340 486z"/>
<path style="fill:#bdb1b1; stroke:none;" d="M239 487L240 488L239 487z"/>
<path style="fill:#717171; stroke:none;" d="M357 487L358 488L357 487z"/>
<path style="fill:#bdb1b1; stroke:none;" d="M560 487L561 488L560 487z"/>
<path style="fill:#717171; stroke:none;" d="M341 488L342 489L341 488z"/>
<path style="fill:#bdb1b1; stroke:none;" d="M240 489L241 490L240 489M341 489L342 490L341 489M559 489L560 490L559 489M241 491L242 492L241 491z"/>
<path style="fill:#717171; stroke:none;" d="M342 491L343 492L342 491M343 493L344 494L343 493z"/>
<path style="fill:#bdb1b1; stroke:none;" d="M243 494L244 495L243 494M343 494L344 495L343 494M556 494L557 495L556 494M244 496L245 497L244 496z"/>
<path style="fill:#717171; stroke:none;" d="M344 496L345 497L344 496M345 498L346 499L345 498z"/>
<path style="fill:#bdb1b1; stroke:none;" d="M497 498L497 503L498 503L497 498M246 499L247 500L246 499M345 499L346 500L345 499M553 499L554 500L553 499z"/>
<path style="fill:#717171; stroke:none;" d="M346 501L347 502L346 501z"/>
<path style="fill:#bdb1b1; stroke:none;" d="M248 502L249 503L248 502M551 502L552 503L551 502M347 503L348 504L347 503z"/>
<path style="fill:#717171; stroke:none;" d="M513 503L514 504L513 503z"/>
<path style="fill:#bdb1b1; stroke:none;" d="M318 504L318 505L335 505L318 504M348 504L348 505L375 505L348 504M250 505L251 506L250 505M549 505L550 506L549 505M251 506L252 507L251 506z"/>
<path style="fill:#717171; stroke:none;" d="M498.333 506.667L498.667 507.333L498.333 506.667z"/>
<path style="fill:#bdb1b1; stroke:none;" d="M548 506L549 507L548 506M431.667 507.333L432.333 507.667L431.667 507.333M436.667 508.333L437.333 508.667L436.667 508.333M498.333 508.667L498.667 509.333L498.333 508.667M253 509L254 510L253 509M440 509L441 510L440 509M546 509L547 510L546 509M254 510L255 511L254 510M442.667 510.333L443.333 510.667L442.667 510.333M545 510L546 511L545 510M445 511L446 512L445 511M447 512L448 513L447 512z"/>
<path style="fill:#717171; stroke:none;" d="M499.333 512.667L499.667 513.333L499.333 512.667z"/>
<path style="fill:#bdb1b1; stroke:none;" d="M256 513L257 514L256 513M322 513L322 514L367 514C355.299 509.09 334.742 513 322 513M449 513L450 514L449 513M543 513L544 514L543 513M257 514L258 515L257 514z"/>
<path style="fill:#717171; stroke:none;" d="M321 514L322 515L321 514z"/>
<path style="fill:#3a3939; stroke:none;" d="M318 525L322 525L322 560L356 560C359.151 560 365.739 561.216 367.972 558.397C371.462 553.991 369 540.468 369 535C369 530.619 371.151 518.001 367.397 515.028C364.15 512.456 355.929 514 352 514C339.907 514 319.619 508.862 318 525z"/>
<path style="fill:#bdb1b1; stroke:none;" d="M368 514L369 515L368 514z"/>
<path style="fill:#717171; stroke:none;" d="M426 514L427 515L426 514z"/>
<path style="fill:#bdb1b1; stroke:none;" d="M451 514L452 515L451 514M499 514L500 515L499 514z"/>
<path style="fill:#717171; stroke:none;" d="M515 514L516 515L515 514z"/>
<path style="fill:#bdb1b1; stroke:none;" d="M542 514L543 515L542 514M320 515L321 516L320 515z"/>
<path style="fill:#717171; stroke:none;" d="M369 516L369 558L370 558C370 546.043 373.611 526.988 369 516z"/>
<path style="fill:#bdb1b1; stroke:none;" d="M454 516L455 517L454 516M319 517L320 518L319 517z"/>
<path style="fill:#717171; stroke:none;" d="M500 517L501 518L500 517M319 518L320 519L319 518M439 518L440 519L439 518z"/>
<path style="fill:#bdb1b1; stroke:none;" d="M457 518L458 519L457 518M500.333 518.667L500.667 519.333L500.333 518.667M261 519L262 520L261 519z"/>
<path style="fill:#717171; stroke:none;" d="M441 519L442 520L441 519z"/>
<path style="fill:#bdb1b1; stroke:none;" d="M538 519L539 520L538 519M262 520L263 521L262 520z"/>
<path style="fill:#717171; stroke:none;" d="M318 520L319 521L318 520z"/>
<path style="fill:#bdb1b1; stroke:none;" d="M537 520L538 521L537 520M263 521L264 522L263 521z"/>
<path style="fill:#717171; stroke:none;" d="M501 521L502 522L501 521z"/>
<path style="fill:#bdb1b1; stroke:none;" d="M536 521L537 522L536 521M264 522L265 523L264 522M462 522L463 523L462 522M501 522L502 523L501 522M535 522L536 523L535 522z"/>
<path style="fill:#717171; stroke:none;" d="M317.333 523.667L317.667 524.333L317.333 523.667z"/>
<path style="fill:#bdb1b1; stroke:none;" d="M463 523L464 524L463 523z"/>
<path style="fill:#717171; stroke:none;" d="M449 524L450 525L449 524z"/>
<path style="fill:#bdb1b1; stroke:none;" d="M464 524L465 525L464 524z"/>
<path style="fill:#717171; stroke:none;" d="M502 524L503 525L502 524z"/>
<path style="fill:#bdb1b1; stroke:none;" d="M317 525L317 526L321 526L321 560C323.733 553.488 324.999 526.335 317 525z"/>
<path style="fill:#717171; stroke:none;" d="M321 525L322 526L321 525M338 525L339 526L338 525z"/>
<path style="fill:#bdb1b1; stroke:none;" d="M351 549L351 548L339 548L339 526L353 527C339.665 516.897 331.997 538.52 339.028 547.397C341.262 550.218 347.82 549 351 549M465 525L466 526L465 525M502 525L503 526L502 525z"/>
<path style="fill:#ffffff; stroke:none;" d="M339 526L339 548C342.357 548 348.611 549.179 351.397 546.972C354.347 544.636 354.347 529.364 351.397 527.028C348.611 524.821 342.357 526 339 526z"/>
<path style="fill:#bdb1b1; stroke:none;" d="M466 526L467 527L466 526z"/>
<path style="fill:#717171; stroke:none;" d="M503 527L504 528L503 527z"/>
<path style="fill:#bdb1b1; stroke:none;" d="M503 528L504 529L503 528z"/>
<path style="fill:#717171; stroke:none;" d="M520 528L521 529L520 528z"/>
<path style="fill:#bdb1b1; stroke:none;" d="M417 529L417 567L418 567L418 530L423 530L417 529z"/>
<path style="fill:#717171; stroke:none;" d="M423 529L424 530L423 529z"/>
<path style="fill:#ffffff; stroke:none;" d="M418 530L418 567L455 567C454.114 546.43 438.903 530.058 418 530z"/>
<path style="fill:#bdb1b1; stroke:none;" d="M426 530L427 531L426 530z"/>
<path style="fill:#717171; stroke:none;" d="M427 530L428 531L427 530z"/>
<path style="fill:#bdb1b1; stroke:none;" d="M469 530L470 531L469 530z"/>
<path style="fill:#717171; stroke:none;" d="M504 530L505 531L504 530z"/>
<path style="fill:#bdb1b1; stroke:none;" d="M429 531L430 532L429 531z"/>
<path style="fill:#717171; stroke:none;" d="M430 531L431 532L430 531z"/>
<path style="fill:#bdb1b1; stroke:none;" d="M470 531L471 532L470 531M432 532L433 533L432 532z"/>
<path style="fill:#717171; stroke:none;" d="M505 532L506 533L505 532z"/>
<path style="fill:#bdb1b1; stroke:none;" d="M434 533L435 534L434 533M505 533L506 534L505 533z"/>
<path style="fill:#717171; stroke:none;" d="M523 533L524 534L523 533z"/>
<path style="fill:#bdb1b1; stroke:none;" d="M436 534L437 535L436 534M472 534L473 535L472 534M524 534L525 535L524 534M277 535L278 536L277 535z"/>
<path style="fill:#717171; stroke:none;" d="M438 535L439 536L438 535z"/>
<path style="fill:#bdb1b1; stroke:none;" d="M506 535L507 536L506 535M525 535L526 536L525 535M278 536L279 537L278 536M439 536L440 537L439 536z"/>
<path style="fill:#717171; stroke:none;" d="M507 536L508 537L507 536M526 536L527 537L526 536z"/>
<path style="fill:#bdb1b1; stroke:none;" d="M527 536L528 537L527 536M279 537L280 538L279 537M440 537L441 538L440 537M507 537L508 538L507 537z"/>
<path style="fill:#717171; stroke:none;" d="M530 537L531 538L530 537z"/>
<path style="fill:#bdb1b1; stroke:none;" d="M531 537L532 538L531 537M280 538L281 539L280 538z"/>
<path style="fill:#717171; stroke:none;" d="M442 538L443 539L442 538M508 538L509 539L508 538M532 538L533 539L532 538M443 539L444 540L443 539z"/>
<path style="fill:#bdb1b1; stroke:none;" d="M475 539L476 540L475 539z"/>
<path style="fill:#717171; stroke:none;" d="M533 539L534 540L533 539M444 540L445 541L444 540z"/>
<path style="fill:#bdb1b1; stroke:none;" d="M509 540L510 541L509 540M534 540L535 541L534 540z"/>
<path style="fill:#717171; stroke:none;" d="M445 541L446 542L445 541z"/>
<path style="fill:#bdb1b1; stroke:none;" d="M476 541L477 542L476 541z"/>
<path style="fill:#717171; stroke:none;" d="M510 541L511 542L510 541z"/>
<path style="fill:#bdb1b1; stroke:none;" d="M285 542L286 543L285 542M535 542L535 564L536 564L535 542M286 543L287 544L286 543M447 544L448 545L447 544M477 544L478 545L477 544M512 544L513 545L512 544M289 545L290 546L289 545z"/>
<path style="fill:#717171; stroke:none;" d="M448 545L449 546L448 545z"/>
<path style="fill:#bdb1b1; stroke:none;" d="M513 545L514 546L513 545z"/>
<path style="fill:#717171; stroke:none;" d="M290 546L290 576L291 576L290 546z"/>
<path style="fill:#bdb1b1; stroke:none;" d="M478 546L479 547L478 546M514 546L515 547L514 546M352 547L353 548L352 547M449 547L450 548L449 547M515 547L516 548L515 547z"/>
<path style="fill:#717171; stroke:none;" d="M338 548L339 549L338 548M351 548L352 549L351 548M450 548L451 549L450 548z"/>
<path style="fill:#bdb1b1; stroke:none;" d="M450 549L451 550L450 549M479 549L480 550L479 549z"/>
<path style="fill:#717171; stroke:none;" d="M518 549L519 550L518 549M451 550L452 551L451 550z"/>
<path style="fill:#bdb1b1; stroke:none;" d="M451 551L452 552L451 551z"/>
<path style="fill:#717171; stroke:none;" d="M452 552L453 553L452 552z"/>
<path style="fill:#bdb1b1; stroke:none;" d="M452 553L453 554L452 553M480 553L481 554L480 553z"/>
<path style="fill:#717171; stroke:none;" d="M453 555L454 556L453 555z"/>
<path style="fill:#bdb1b1; stroke:none;" d="M453 556L454 557L453 556M481.333 558.667L481.667 559.333L481.333 558.667z"/>
<path style="fill:#717171; stroke:none;" d="M454 559L455 560L454 559z"/>
<path style="fill:#bdb1b1; stroke:none;" d="M322 560L322 561L367 561C355.299 556.09 334.742 560 322 560M454.333 560.667L454.667 561.333L454.333 560.667z"/>
<path style="fill:#717171; stroke:none;" d="M470 562L470 566L471 566L470 562z"/>
<path style="fill:#bdb1b1; stroke:none;" d="M519 562L520 563L519 562z"/>
<path style="fill:#717171; stroke:none;" d="M518 564L519 565L518 564M517 565L518 566L517 565M534.333 565.667L534.667 566.333L534.333 565.667M455 566L456 567L455 566z"/>
<path style="fill:#bdb1b1; stroke:none;" d="M515 566L516 567L515 566z"/>
<path style="fill:#717171; stroke:none;" d="M417 567L417 568L455 568C444.964 563.789 427.911 567 417 567M482 567L482 568L514 568L482 567z"/>
<path style="fill:#bdb1b1; stroke:none;" d="M533 569L534 570L533 569M532 571L533 572L532 571z"/>
<path style="fill:#717171; stroke:none;" d="M531 572L532 573L531 572z"/>
<path style="fill:#bdb1b1; stroke:none;" d="M530 574L531 575L530 574M529 575L530 576L529 575M290.333 576.667L290.667 577.333L290.333 576.667M528 576L529 577L528 576M527 577L528 578L527 577z"/>
<path style="fill:#717171; stroke:none;" d="M525 578L526 579L525 578z"/>
<path style="fill:#bdb1b1; stroke:none;" d="M291 579L292 580L291 579M524 579L525 580L524 579M292 580L293 581L292 580M522 580L523 581L522 580M293 581L294 582L293 581z"/>
<path style="fill:#717171; stroke:none;" d="M519 581L520 582L519 581z"/>
<path style="fill:#bdb1b1; stroke:none;" d="M520 581L521 582L520 581M295 582L296 583L295 582z"/>
<path style="fill:#717171; stroke:none;" d="M296 582L296 583L516 583L495 582L451 582L296 582z"/>
<path style="fill:#bdb1b1; stroke:none;" d="M516.667 582.333L517.333 582.667L516.667 582.333z"/>
</svg>
